<svg width="206" height="206" viewBox="0 0 206 206" fill="none" xmlns="http://www.w3.org/2000/svg">
<path d="M4 48V26C4 20.1652 6.31785 14.5695 10.4436 10.4436C14.5695 6.31785 20.1652 4 26 4H48M158 4H180C185.835 4 191.431 6.31785 195.556 10.4436C199.682 14.5695 202 20.1652 202 26V48M202 158V180C202 185.835 199.682 191.431 195.556 195.556C191.431 199.682 185.835 202 180 202H158M48 202H26C20.1652 202 14.5695 199.682 10.4436 195.556C6.31785 191.431 4 185.835 4 180V158" stroke="#3885DE" stroke-opacity="0.5" stroke-width="7" stroke-linecap="round" stroke-linejoin="round"/>
<path d="M170.61 133.33H148.274C144.325 133.33 140.538 134.898 137.745 137.689C134.953 140.48 133.384 144.265 133.384 148.212V170.535M170.61 170.535V170.61M103.604 66.3615V88.6845C103.604 92.6314 102.035 96.4167 99.2423 99.2076C96.4498 101.999 92.6624 103.566 88.7133 103.566H66.3779M36.5974 103.566H36.6719M103.604 36.5975H103.678M103.604 133.33V133.405M133.384 103.566H140.829M170.61 103.566V103.641M103.604 170.535V163.094M44.0425 36.5975H66.3779C70.4897 36.5975 73.823 39.929 73.823 44.0385V66.3615C73.823 70.471 70.4897 73.8025 66.3779 73.8025H44.0425C39.9307 73.8025 36.5974 70.471 36.5974 66.3615V44.0385C36.5974 39.929 39.9307 36.5975 44.0425 36.5975ZM140.829 36.5975H163.164C167.276 36.5975 170.61 39.929 170.61 44.0385V66.3615C170.61 70.471 167.276 73.8025 163.164 73.8025H140.829C136.717 73.8025 133.384 70.471 133.384 66.3615V44.0385C133.384 39.929 136.717 36.5975 140.829 36.5975ZM44.0425 133.33H66.3779C70.4897 133.33 73.823 136.662 73.823 140.771V163.094C73.823 167.204 70.4897 170.535 66.3779 170.535H44.0425C39.9307 170.535 36.5974 167.204 36.5974 163.094V140.771C36.5974 136.662 39.9307 133.33 44.0425 133.33Z" stroke="#7EADE5" stroke-opacity="0.5" stroke-width="7" stroke-linecap="round" stroke-linejoin="round"/>
</svg>
